<svg version="1.0" xmlns="http://www.w3.org/2000/svg" width="184" height="144" viewBox="0 0 138 108"><path d="M43.4 16.5c-2.1 2.1-2.5 3.2-2 5.8 1.2 6.2 6.2 8.2 10.2 4.2 2.1-2.1 2.5-3.2 2-5.8-1.2-6.2-6.2-8.2-10.2-4.2zM80 17c-3.3 3.3-2.4 7.2 2.1 9.5 3.8 2 7.2 1.9 9.2-.3 3-3.3 1.9-7.5-2.4-9.7-3.8-2-6.5-1.9-8.9.5zM30.6 51.6c-3.5 3.4-1.1 10.8 5.9 18.3C45.8 79.9 55.6 84 69.6 84c14.3 0 24.3-4.5 32.7-14.7 8.2-10 9.1-13.7 4.2-16.9-3.5-2.3-5.9-1-10.9 5.4-8.1 10.5-12.2 13-23.5 13.9-12.9 1.1-26-5.6-30.3-15.6-1.2-2.5-2.6-4.9-3.2-5.3-1.9-1.3-6.4-.9-8 .8z"/></svg>